#!OML:ASF H:\Dans Jumps\Project 1\Capture day 1\Session 1\subject.ASF
:FULLY-SPECIFIED
:DEGREES
181
root 0.297105 21.5076 -9.29074 8.20081 2.66351 -1.60691
lowerback 11.2433 -0.610377 -1.54749
upperback 6.13584 -0.91586 2.69069
thorax 0.172513 -0.536066 3.76691
lowerneck -8.4224 0.242311 -0.9249
upperneck 24.9069 0.931578 -1.7379
head 9.1973 0.16918 -0.341437
rclavicle 6.75868e-015 -1.74931e-014
rhumerus -4.90669 -2.8485 -88.2877
rradius 27.1567
rwrist 27.9179
rhand -22.332 -25.08
rfingers 7.12502
rthumb 4.08818 -55.0205
lclavicle 6.75868e-015 -1.74931e-014
lhumerus 0.0186082 -12.8582 92.0672
lradius 31.6094
lwrist 21.0527
lhand -29.1931 -10.8158
lfingers 7.12502
lthumb -2.53816 19.1489
rfemur -31.3185 -2.79737 20.1821
rtibia 46.4891
rfoot 17.4437 -7.473
rtoes 22.9914
lfemur -29.7626 3.55493 -17.4218
ltibia 43.5377
lfoot 22.1816 1.25976
ltoes 4.4473
182
root 0.295583 21.5703 -9.17914 8.10384 2.67096 -1.62618
lowerback 11.3621 -0.609949 -1.57452
upperback 6.14494 -0.918097 2.69346
thorax 0.118518 -0.537209 3.78761
lowerneck -8.53937 0.245523 -0.861363
upperneck 25.0161 0.9266 -1.73031
head 9.25778 0.171657 -0.350435
rclavicle 8.54774e-015 -1.59028e-014
rhumerus -5.06636 -3.42856 -88.3812
rradius 26.8528
rwrist 28.3031
rhand -22.3498 -25.1133
rfingers 7.12502
rthumb 4.07104 -55.0541
lclavicle 8.54774e-015 -1.59028e-014
lhumerus -0.101087 -12.8989 92.3333
lradius 31.326
lwrist 20.9721
lhand -29.1315 -10.8022
lfingers 7.12502
lthumb -2.47868 19.1632
rfemur -31.7116 -2.92594 20.2464
rtibia 45.7568
rfoot 17.2902 -7.61291
rtoes 22.8974
lfemur -30.1897 3.87715 -17.5682
ltibia 43.0485
lfoot 21.6182 1.29378
ltoes 4.27103
183
root 0.294244 21.62 -9.06601 8.07308 2.68276 -1.64952
lowerback 11.4112 -0.612549 -1.58718
upperback 6.12706 -0.922565 2.69439
thorax 0.073906 -0.538868 3.79737
lowerneck -8.63083 0.243134 -0.810788
upperneck 25.1282 0.913649 -1.71473
head 9.31444 0.170272 -0.355347
rclavicle 6.75868e-015 -2.54444e-014
rhumerus -5.27615 -3.9454 -88.4421
rradius 26.5985
rwrist 28.6283
rhand -22.3353 -25.1418
rfingers 7.12502
rthumb 4.08503 -55.0824
lclavicle 6.75868e-015 -2.54444e-014
lhumerus -0.259131 -12.9985 92.5653
lradius 31.0545
lwrist 20.9402
lhand -29.0489 -10.8111
lfingers 7.12502
lthumb -2.39894 19.1551
rfemur -32.1556 -3.10683 20.3283
rtibia 44.9548
rfoot 17.2207 -7.82713
rtoes 22.9215
lfemur -30.68 4.23425 -17.716
ltibia 42.5018
lfoot 21.1327 1.2734
ltoes 4.18244
184
root 0.293262 21.6564 -8.95202 8.08446 2.6932 -1.67299
lowerback 11.4105 -0.619819 -1.5927
upperback 6.09485 -0.932324 2.69044
thorax 0.041344 -0.542914 3.7977
lowerneck -8.71819 0.238782 -0.7811
upperneck 25.2419 0.898733 -1.6876
head 9.37089 0.16731 -0.352945
rclavicle 9.14409e-015 -9.54166e-015
rhumerus -5.52914 -4.36885 -88.4786
rradius 26.4105
rwrist 28.8825
rhand -22.3243 -25.1604
rfingers 7.12502
rthumb 4.09565 -55.1008
lclavicle 9.14409e-015 -9.54166e-015
lhumerus -0.454995 -13.1406 92.7527
lradius 30.8218
lwrist 20.9341
lhand -28.9446 -10.8046
lfingers 7.12502
lthumb -2.29822 19.1628
rfemur -32.633 -3.32877 20.4214
rtibia 44.1052
rfoot 17.2276 -8.07366
rtoes 22.9811
lfemur -31.2133 4.62204 -17.8715
ltibia 41.9103
lfoot 20.7576 1.17317
ltoes 4.15604
185
root 0.292296 21.6793 -8.8371 8.11447 2.70137 -1.69385
lowerback 11.3778 -0.627871 -1.59288
upperback 6.06218 -0.942656 2.67774
thorax 0.0253475 -0.547218 3.78527
lowerneck -8.8286 0.230508 -0.78941
upperneck 25.3737 0.8744 -1.614
head 9.43784 0.161128 -0.329044
rclavicle 1.72943e-014 -1.47101e-014
rhumerus -5.81306 -4.70034 -88.4958
rradius 26.2801
rwrist 29.065
rhand -22.3114 -25.1859
rfingers 7.12502
rthumb 4.1081 -55.126
lclavicle 1.72943e-014 -1.47101e-014
lhumerus -0.682256 -13.3225 92.8977
lradius 30.6353
lwrist 20.9278
lhand -28.8167 -10.7791
lfingers 7.12502
lthumb -2.1747 19.1896
rfemur -33.1197 -3.57543 20.5193
rtibia 43.2206
rfoot 17.3073 -8.2897
rtoes 23.0036
lfemur -31.7641 5.02981 -18.0342
ltibia 41.2801
lfoot 20.5101 0.98754
ltoes 4.26802
186
root 0.291265 21.6888 -8.72156 8.14162 2.7022 -1.71134
lowerback 11.3333 -0.634158 -1.59384
upperback 6.03575 -0.950898 2.65791
thorax 0.0219916 -0.550655 3.76529
lowerneck -8.95039 0.220644 -0.825335
upperneck 25.5053 0.846072 -1.51252
head 9.50688 0.153513 -0.291147
rclavicle 8.94531e-015 -1.74931e-014
rhumerus -6.12972 -4.94406 -88.4939
rradius 26.2093
rwrist 29.1837
rhand -22.3406 -25.1899
rfingers 7.12502
rthumb 4.07983 -55.1306
lclavicle 8.94531e-015 -1.74931e-014
lhumerus -0.948117 -13.5203 93.0102
lradius 30.5054
lwrist 20.9047
lhand -28.6847 -10.7649
lfingers 7.12502
lthumb -2.04722 19.205
rfemur -33.5915 -3.82651 20.6135
rtibia 42.3033
rfoot 17.4537 -8.40891
rtoes 22.9195
lfemur -32.3064 5.45156 -18.2027
ltibia 40.609
lfoot 20.3852 0.721544
ltoes 4.51201
187
root 0.289895 21.6848 -8.60539 8.14861 2.69494 -1.73026
lowerback 11.2867 -0.636066 -1.593
upperback 6.02349 -0.953444 2.6327
thorax 0.0339945 -0.551534 3.73787
lowerneck -9.08314 0.208355 -0.897522
upperneck 25.6442 0.810229 -1.36669
head 9.58047 0.143756 -0.232407
rclavicle 2.28602e-015 1.39149e-015
rhumerus -6.48166 -5.11239 -88.4718
rradius 26.2002
rwrist 29.2434
rhand -22.3737 -25.2153
rfingers 7.12502
rthumb 4.04788 -55.1566
lclavicle 2.28602e-015 1.39149e-015
lhumerus -1.2541 -13.746 93.0929
lradius 30.4394
lwrist 20.8917
lhand -28.5643 -10.7407
lfingers 7.12502
lthumb -1.93091 19.2303
rfemur -34.0242 -4.06266 20.702
rtibia 41.3491
rfoot 17.6665 -8.37987
rtoes 22.6802
lfemur -32.8157 5.87758 -18.366
ltibia 39.8923
lfoot 20.3427 0.385976
ltoes 4.86541
188
root 0.288067 21.6678 -8.48806 8.11924 2.68348 -1.75212
lowerback 11.25 -0.634799 -1.59302
upperback 6.02946 -0.952121 2.60783
thorax 0.0594852 -0.55094 3.71092
lowerneck -9.22275 0.194805 -0.994411
upperneck 25.7916 0.771496 -1.19728
head 9.65852 0.132919 -0.161415
rclavicle -5.86415e-015 -9.93923e-015
rhumerus -6.86089 -5.21485 -88.4254
rradius 26.2339
rwrist 29.2446
rhand -22.4431 -25.2369
rfingers 7.12502
rthumb 3.9809 -55.1795
lclavicle -5.86415e-015 -9.93923e-015
lhumerus -1.59874 -13.9771 93.1585
lradius 30.436
lwrist 20.9051
lhand -28.4739 -10.7173
lfingers 7.12502
lthumb -1.84363 19.2544
rfemur -34.3891 -4.27855 20.7806
rtibia 40.3493
rfoot 17.9137 -8.18102
rtoes 22.2307
lfemur -33.2652 6.29426 -18.5158
ltibia 39.1223
lfoot 20.3269 0.000979141
ltoes 5.30222
189
root 0.285957 21.6381 -8.36947 8.04597 2.66351 -1.77894
lowerback 11.2252 -0.629642 -1.59373
upperback 6.05287 -0.945958 2.58468
thorax 0.0963805 -0.548365 3.68574
lowerneck -9.32456 0.183945 -1.07868
upperneck 25.9122 0.737716 -1.04687
head 9.72014 0.124049 -0.0984693
rclavicle 1.54058e-014 -2.08724e-014
rhumerus -7.27461 -5.26056 -88.3536
rradius 26.3106
rwrist 29.1936
rhand -22.5413 -25.2669
rfingers 7.12502
rthumb 3.88605 -55.2112
lclavicle 1.54058e-014 -2.08724e-014
lhumerus -1.98203 -14.2178 93.2102
lradius 30.4829
lwrist 20.985
lhand -28.4297 -10.7377
lfingers 7.12502
lthumb -1.80094 19.2344
rfemur -34.669 -4.47412 20.8487
rtibia 39.2971
rfoot 18.1918 -7.82329
rtoes 21.6011
lfemur -33.6379 6.69234 -18.6437
ltibia 38.2914
lfoot 20.2792 -0.419238
ltoes 5.7361
190
root 0.283388 21.5961 -8.24906 7.92587 2.63147 -1.81786
lowerback 11.2123 -0.617885 -1.5909
upperback 6.09175 -0.930953 2.56436
thorax 0.142406 -0.541672 3.66068
lowerneck -9.38432 0.172373 -1.1469
upperneck 26.015 0.703593 -0.915667
head 9.76763 0.11489 -0.0448944
rclavicle 1.65985e-014 -7.15625e-015
rhumerus -7.72928 -5.26308 -88.2585
rradius 26.4302
rwrist 29.0836
rhand -22.6503 -25.3175
rfingers 7.12502
rthumb 3.78084 -55.2637
lclavicle 1.65985e-014 -7.15625e-015
lhumerus -2.39015 -14.4932 93.2428
lradius 30.557
lwrist 21.1809
lhand -28.4322 -10.757
lfingers 7.12502
lthumb -1.80338 19.2152
rfemur -34.8521 -4.64679 20.9158
rtibia 38.1897
rfoot 18.4839 -7.36062
rtoes 20.8452
lfemur -33.9207 7.06012 -18.7306
ltibia 37.3934
lfoot 20.1623 -0.855626
ltoes 6.09594
191
root 0.280239 21.5422 -8.12642 7.76655 2.58862 -1.86282
lowerback 11.1987 -0.599229 -1.59057
upperback 6.14583 -0.907273 2.54421
thorax 0.204079 -0.531122 3.63618
lowerneck -9.39986 0.160837 -1.16678
upperneck 26.0912 0.671847 -0.835343
head 9.79749 0.10638 -0.0170302
rclavicle 2.98177e-015 -1.92821e-014
rhumerus -8.20936 -5.24482 -88.1457
rradius 26.5666
rwrist 28.9366
rhand -22.7587 -25.3728
rfingers 7.12502
rthumb 3.67616 -55.3209
lclavicle 2.98177e-015 -1.92821e-014
lhumerus -2.81147 -14.7845 93.2615
lradius 30.6381
lwrist 21.4731
lhand -28.4683 -10.8037
lfingers 7.12502
lthumb -1.83823 19.1682
rfemur -34.9395 -4.81057 20.9808
rtibia 37.0333
rfoot 18.7741 -6.86983
rtoes 20.083
lfemur -34.112 7.37981 -18.7727
ltibia 36.4236
lfoot 19.9647 -1.29693
ltoes 6.29022
